<?xml version="1.0" encoding="UTF-8" standalone="no"?>
<!-- Created with Inkscape (http://www.inkscape.org/) -->

<svg
   width="24mm"
   height="24mm"
   viewBox="0 0 24 24"
   version="1.1"
   id="svg5"
   xml:space="preserve"
   inkscape:version="1.2.1 (9c6d41e410, 2022-07-14)"
   sodipodi:docname="joplin.svg"
   xmlns:inkscape="http://www.inkscape.org/namespaces/inkscape"
   xmlns:sodipodi="http://sodipodi.sourceforge.net/DTD/sodipodi-0.dtd"
   xmlns="http://www.w3.org/2000/svg"
   xmlns:svg="http://www.w3.org/2000/svg"><sodipodi:namedview
     id="namedview7"
     pagecolor="#505050"
     bordercolor="#ffffff"
     borderopacity="1"
     inkscape:showpageshadow="0"
     inkscape:pageopacity="0"
     inkscape:pagecheckerboard="1"
     inkscape:deskcolor="#505050"
     inkscape:document-units="mm"
     showgrid="false"
     inkscape:zoom="4.5184062"
     inkscape:cx="100.80988"
     inkscape:cy="39.394422"
     inkscape:window-width="1920"
     inkscape:window-height="1012"
     inkscape:window-x="0"
     inkscape:window-y="0"
     inkscape:window-maximized="1"
     inkscape:current-layer="svg5"
     inkscape:lockguides="false" /><defs
     id="defs2" /><path
     style="opacity:1;fill:#000000;fill-opacity:1;fill-rule:evenodd;stroke-width:0.0272952;stroke-linecap:round;stroke-linejoin:round;paint-order:fill markers stroke"
     d="m 12.075876,3 h 6.656203 l 3.89e-4,2.3335467 h -1.104876 c -0.370353,0 -0.552953,0.1852512 -0.552953,0.5529536 V 16.677523 C 17.074639,18.61344 15.317392,21 11.975459,21 8.4199948,21 5.2675324,18.227989 5.2675324,14.778472 c 0,-3.865739 3.9059203,-5.6219775 6.7289086,-4.665115 v 3.489734 c -0.615477,-0.393075 -1.159019,-0.486832 -1.728866,-0.486832 -0.7941685,0 -1.6172073,0.668426 -1.6172073,1.634427 0,1.682702 1.9735693,3.042037 3.1874553,3.042037 1.253614,0 1.895882,-0.783738 1.895882,-1.512465 V 5.8865003 c 0,-0.3749782 -0.18161,-0.5529536 -0.552953,-0.5529536 h -1.104876 z"
     id="path424"
     sodipodi:nodetypes="ccccccssccsssscccc" /></svg>
