<svg id="whatsapp" xmlns="http://www.w3.org/2000/svg" width="24" height="24" viewBox="0 0 24 24">
  <title>WhatsApp</title>
  <path d="M19.08993,4.9A9.93844,9.93844,0,0,0,3.42,16.86L2,22l5.28-1.38A9.96164,9.96164,0,0,0,22,11.92,9.815,9.815,0,0,0,19.08993,4.9ZM16.92,15.45a2.55991,2.55991,0,0,1-1.68,1.18,3.47474,3.47474,0,0,1-1.57-.1c-.36-.11-.82-.27-1.42-.52A11.191,11.191,0,0,1,8,12.27,4.8573,4.8573,0,0,1,6.99,9.71a2.77872,2.77872,0,0,1,.87-2.07.88374.88374,0,0,1,.66-.31L9,7.34c.15.01.36-.06.56.42.2.5.7,1.72.76,1.84a.453.453,0,0,1,.03.44,1.773,1.773,0,0,1-.26.41c-.12.14-.25995.31995-.37.43-.12.13-.25.26-.11.51A7.49456,7.49456,0,0,0,11,13.1a6.55869,6.55869,0,0,0,2,1.23c.25.12994.39.11.54-.06006.14-.16.62-.72.78-.97.17-.25.34-.21.56-.12.23.08,1.46.68,1.71.8.24005.13.41.19.47.29A1.95411,1.95411,0,0,1,16.92,15.45Z"/>
</svg>
