<svg xmlns="http://www.w3.org/2000/svg" width="24" height="24" viewBox="0 0 24 24">
  <title>WhatsApp Business</title>
  <g>
    <path d="M19.08,4.91A9.93849,9.93849,0,0,0,3.41,16.87L2,22l5.27-1.38a10.0196,10.0196,0,0,0,4.76,1.21h.01A9.95692,9.95692,0,0,0,22,11.92,9.8257,9.8257,0,0,0,19.08,4.91ZM12.72,16.75H9.24c-.33.01-.47.01-.54-.04-.11-.06-.22-.12-.22-.48,0-1.77.01-5.86,0-7.37-.01-.95-.13-1.57.7-1.57,2.26,0,5.56-.42,6.32,1.44.78,1.89-.48,2.8-.75,3.28C16.63,12.54,16.73,16.75,12.72,16.75Z" />
    <path d="M14.13446,13.95741a1.21418,1.21418,0,0,1-1.21,1.21h-2.48v-2.42h2.48A1.21417,1.21417,0,0,1,14.13446,13.95741Z" />
    <path d="M14.13446,10.004a1.21418,1.21418,0,0,1-1.21,1.21h-2.48V8.794h2.48A1.21417,1.21417,0,0,1,14.13446,10.004Z" />
  </g>
</svg>
